<svg width="30" height="31" viewBox="0 0 30 31" fill="none" xmlns="http://www.w3.org/2000/svg">
<path fill-rule="evenodd" clip-rule="evenodd" d="M20.1107 0.916626C20.4976 0.916552 20.8688 1.07029 21.1424 1.34399L26.4688 6.67281C27.0381 7.24227 27.0381 8.16529 26.4688 8.73475L11.3876 23.8226C11.1141 24.0962 10.7431 24.25 10.3562 24.25H5.02075C4.21534 24.25 3.56242 23.597 3.56242 22.7916V17.4832C3.56242 17.0967 3.71582 16.7261 3.98894 16.4526L19.0791 1.34438C19.3526 1.07058 19.7237 0.9167 20.1107 0.916626ZM20.1113 4.4382L6.47908 18.0868V21.3333H9.75196L23.3755 7.70378L20.1113 4.4382ZM0.645752 28.625C0.645752 27.8195 1.29867 27.1666 2.10409 27.1666H28.3541C29.1595 27.1666 29.8124 27.8195 29.8124 28.625C29.8124 29.4304 29.1595 30.0833 28.3541 30.0833H2.10409C1.29867 30.0833 0.645752 29.4304 0.645752 28.625Z" fill="#B85526"/>
</svg>
