<svg width="49" height="49" viewBox="0 0 49 49" fill="none" xmlns="http://www.w3.org/2000/svg">
<path d="M42.628 26.94C42.7206 26.19 42.7823 25.41 42.7823 24.6C42.7823 23.79 42.7206 23.01 42.5972 22.26L47.8121 18.3C48.275 17.94 48.3984 17.28 48.1207 16.77L43.1834 8.45998C42.8749 7.91998 42.2269 7.73998 41.6714 7.91998L35.5307 10.32C34.2347 9.35997 32.8769 8.57998 31.3649 7.97998L30.4392 1.61998C30.3466 1.01998 29.822 0.599976 29.2048 0.599976H19.3303C18.7132 0.599976 18.2194 1.01998 18.1269 1.61998L17.2011 7.97998C15.6891 8.57998 14.3005 9.38997 13.0353 10.32L6.8946 7.91998C6.33916 7.70998 5.69114 7.91998 5.38256 8.45998L0.445305 16.77C0.136726 17.31 0.260158 17.94 0.753884 18.3L5.96886 22.26C5.84543 23.01 5.75286 23.82 5.75286 24.6C5.75286 25.38 5.81457 26.19 5.93801 26.94L0.723026 30.9C0.260158 31.26 0.136726 31.92 0.414447 32.43L5.35171 40.74C5.66028 41.28 6.3083 41.46 6.86374 41.28L13.0045 38.88C14.3005 39.84 15.6582 40.62 17.1703 41.22L18.096 47.58C18.2194 48.18 18.7132 48.6 19.3303 48.6H29.2048C29.822 48.6 30.3466 48.18 30.4083 47.58L31.334 41.22C32.8461 40.62 34.2347 39.81 35.4998 38.88L41.6406 41.28C42.196 41.49 42.844 41.28 43.1526 40.74L48.0899 32.43C48.3984 31.89 48.275 31.26 47.7813 30.9L42.628 26.94ZM24.2676 33.6C19.176 33.6 15.0102 29.55 15.0102 24.6C15.0102 19.65 19.176 15.6 24.2676 15.6C29.3591 15.6 33.5249 19.65 33.5249 24.6C33.5249 29.55 29.3591 33.6 24.2676 33.6Z" fill="#B85526"/>
</svg>
